<svg width="30" height="29" viewBox="0 0 30 29" fill="none" xmlns="http://www.w3.org/2000/svg">
<g id="flat-color-icons:google">
<path id="Vector" d="M27.0378 12.048H26.0754V11.9984H15.3213V16.7779H22.0743C21.0891 19.5602 18.4418 21.5575 15.3213 21.5575C11.3621 21.5575 8.152 18.3474 8.152 14.3881C8.152 10.4289 11.3621 7.2188 15.3213 7.2188C17.1489 7.2188 18.8116 7.90825 20.0776 9.03444L23.4574 5.65469C21.3233 3.66579 18.4687 2.43924 15.3213 2.43924C8.72256 2.43924 3.37244 7.78936 3.37244 14.3881C3.37244 20.9869 8.72256 26.3371 15.3213 26.3371C21.9201 26.3371 27.2703 20.9869 27.2703 14.3881C27.2703 13.587 27.1878 12.8049 27.0378 12.048Z" fill="#FFC107"/>
<path id="Vector_2" d="M4.75018 8.82653L8.676 11.7056C9.73825 9.07566 12.3109 7.2188 15.3214 7.2188C17.149 7.2188 18.8117 7.90825 20.0776 9.03444L23.4574 5.65469C21.3233 3.66579 18.4687 2.43924 15.3214 2.43924C10.7318 2.43924 6.75163 5.03036 4.75018 8.82653Z" fill="#FF3D00"/>
<path id="Vector_3" d="M15.3214 26.3371C18.4078 26.3371 21.2122 25.1559 23.3325 23.2351L19.6343 20.1057C18.3943 21.0487 16.8792 21.5587 15.3214 21.5575C12.2134 21.5575 9.57453 19.5758 8.58038 16.8102L4.68384 19.8124C6.66138 23.682 10.6774 26.3371 15.3214 26.3371Z" fill="#4CAF50"/>
<path id="Vector_4" d="M27.0379 12.048H26.0754V11.9984H15.3214V16.7779H22.0743C21.603 18.1021 20.7541 19.2592 19.6325 20.1063L19.6343 20.1051L23.3325 23.2345C23.0708 23.4723 27.2703 20.3626 27.2703 14.3882C27.2703 13.587 27.1878 12.8049 27.0379 12.048Z" fill="#1976D2"/>
</g>
</svg>
